<svg width="125" height="144" viewBox="0 0 125 144" fill="none" xmlns="http://www.w3.org/2000/svg">
<path d="M26.3297 59.7334H6.11694C4.50121 59.7334 3.19141 61.0467 3.19141 62.6667V63.2001C3.19141 64.8201 4.50121 66.1334 6.11694 66.1334H26.3297C27.9454 66.1334 29.2552 64.8201 29.2552 63.2001V62.6667C29.2552 61.0467 27.9454 59.7334 26.3297 59.7334Z" fill="#CBCBC9"/>
<path d="M62.2338 141.333C71.0469 141.333 78.1913 139.781 78.1913 137.867C78.1913 135.952 71.0469 134.4 62.2338 134.4C53.4208 134.4 46.2764 135.952 46.2764 137.867C46.2764 139.781 53.4208 141.333 62.2338 141.333Z" fill="#768892"/>
<path fill-rule="evenodd" clip-rule="evenodd" d="M39.3616 43.7334L42.0212 48.5334C42.0212 48.5334 28.3685 62.2225 45.7446 85.8667C47.973 89.1011 49.5429 92.7446 50.3644 96.5884C51.1859 100.432 51.2428 104.401 50.5318 108.267H74.468C74.468 108.267 74.1132 96.5334 76.5956 90.6667L81.3829 91.2001C81.3829 91.2001 77.6595 98.1334 78.7233 108.8C78.7233 108.8 78.1914 112.889 74.468 113.067H49.468C49.468 113.067 45.9217 112.889 46.2765 107.733C46.6313 102.578 46.8084 94.7558 42.5531 89.6001C42.5531 89.6001 35.993 79.8225 34.5744 75.2001C34.5744 75.2001 27.3047 59.0225 39.3616 43.7334Z" fill="#CBCBC9" stroke="#CBCBC9"/>
<path d="M73.9362 114.667H49.4681C48.8806 114.667 48.4043 115.144 48.4043 115.733V117.867C48.4043 118.456 48.8806 118.933 49.4681 118.933H73.9362C74.5237 118.933 75 118.456 75 117.867V115.733C75 115.144 74.5237 114.667 73.9362 114.667Z" fill="#CBCBC9"/>
<path d="M73.9362 120.533H49.4681C48.8806 120.533 48.4043 121.011 48.4043 121.6V122.667C48.4043 123.256 48.8806 123.733 49.4681 123.733H73.9362C74.5237 123.733 75 123.256 75 122.667V121.6C75 121.011 74.5237 120.533 73.9362 120.533Z" fill="#CBCBC9"/>
<path d="M73.9362 124.8H49.4681C48.8806 124.8 48.4043 125.277 48.4043 125.866V126.933C48.4043 127.522 48.8806 128 49.4681 128H73.9362C74.5237 128 75 127.522 75 126.933V125.866C75 125.277 74.5237 124.8 73.9362 124.8Z" fill="#CBCBC9"/>
<path fill-rule="evenodd" clip-rule="evenodd" d="M48.9363 129.067H73.9363C73.9363 129.067 75.8868 129.423 73.9363 131.2C73.9363 131.2 65.0708 137.423 63.298 138.134C63.298 138.134 62.4113 139.556 60.1065 138.134C60.1065 138.134 51.2411 133.156 48.9363 130.667C48.9363 130.667 47.3405 129.778 48.9363 129.067Z" fill="#CBCBC9"/>
<path fill-rule="evenodd" clip-rule="evenodd" d="M35.8395 34.0269L21.3831 19.532C21.1084 19.2565 20.7822 19.038 20.4233 18.8889C20.0643 18.7398 19.6796 18.6631 19.2911 18.6631C18.9025 18.6631 18.5178 18.7398 18.1589 18.8889C17.7999 19.038 17.4738 19.2565 17.199 19.532L16.8187 19.9133C16.544 20.1888 16.326 20.5158 16.1774 20.8757C16.0287 21.2356 15.9521 21.6213 15.9521 22.0109C15.9521 22.4005 16.0287 22.7862 16.1774 23.1461C16.326 23.506 16.544 23.833 16.8187 24.1085L31.2767 38.6018C31.5514 38.8773 31.8776 39.0958 32.2365 39.2449C32.5955 39.394 32.9802 39.4707 33.3687 39.4707C33.7572 39.4707 34.142 39.394 34.5009 39.2449C34.8599 39.0958 35.186 38.8773 35.4607 38.6018L35.8411 38.2205C36.3952 37.664 36.7063 36.9097 36.706 36.1234C36.7057 35.337 36.394 34.5829 35.8395 34.0269Z" fill="#CBCBC9"/>
<path fill-rule="evenodd" clip-rule="evenodd" d="M75.0912 78.0957L74.7045 77.9661V77.837H74.4471L74.3184 77.5778H74.0609L73.6742 77.06H73.4168L72.6439 76.1533L72.0003 75.7645V75.5053L70.9694 74.5986V74.34L70.5848 74.0802V73.9506H70.3274C70.0652 74.244 70.0407 74.0466 69.6833 74.2098V74.3394H69.4258V74.469H69.1684V74.5981H68.9104V74.7277H68.5242V74.8573H68.2668V74.9869L67.1077 75.3757V75.5048L66.5923 75.6344V75.764C66.0743 75.8442 65.5446 75.7998 65.0471 75.6344L64.7891 75.2461H64.6604C64.6175 75.0733 64.5746 74.9005 64.5317 74.7277H64.4029C64.3171 74.4689 64.2313 74.2098 64.1455 73.9506H64.0168V73.5629H63.8875V73.3037H63.7588C63.673 73.0445 63.5872 72.7855 63.5013 72.5266H63.3726V72.1378H63.2444V71.8792H63.1157V71.62H62.987V71.3602H62.8577V70.972H62.729C62.6475 70.7611 62.6166 70.5339 62.639 70.3088C62.6614 70.0837 62.7363 69.8671 62.8577 69.6765C63.12 68.78 63.7971 68.8952 64.5322 68.5112V68.3816L65.3051 68.1224V67.9928H65.6912V67.8637L66.2067 67.7341V67.6045H66.4641L67.4944 67.0861V66.6978H67.3657V65.9202C67.213 65.4018 66.9029 63.0285 67.1083 62.2936H67.2338C67.371 61.8061 67.2136 61.2242 67.3625 60.869H67.2338V60.7394L66.5896 60.6098V60.4802H66.2035V60.3522H65.8168V60.2226H65.5593V60.093L64.7864 59.9634V59.8338L64.1428 59.7042V59.5736H63.8848V59.4456H63.4997V59.316H63.2444V59.1864H62.987V59.0568H62.729C62.6864 58.9273 62.6435 58.7979 62.6003 58.6685H62.4716C62.361 58.4717 62.3159 58.2447 62.3428 58.0205H62.2141C62.2999 57.5892 62.3857 57.1576 62.4716 56.7256H62.6003V56.4664H62.729C62.7719 56.2079 62.8148 55.9489 62.8577 55.6893H62.987V55.4301H63.1157C63.1583 55.1713 63.2012 54.9122 63.2444 54.653H63.3731C63.4161 54.4376 63.459 54.2217 63.5019 54.0056H63.6306V53.7464H63.7593V53.3581H63.888C64.1231 52.8882 64.0955 52.5906 64.6609 52.4514C64.805 52.3383 64.9711 52.2568 65.1486 52.2121C65.3261 52.1675 65.511 52.1607 65.6912 52.1922V52.3202L66.4641 52.4498V52.5794H66.7215V52.709L67.4944 52.8386V52.9682H67.7519V53.0989C68.1242 53.2669 68.4354 53.1954 68.7822 53.3581V53.4877L69.5551 53.6173V53.7464H69.8125V53.876C69.9801 53.948 69.8753 53.8173 69.9412 53.7464C70.1699 53.5301 70.3462 53.2643 70.4567 52.9693L70.8428 52.7101V52.4514L71.487 51.9336V51.6744L72.0024 51.2856C72.6345 50.5351 73.372 49.8806 74.1918 49.3426C74.1056 49.0838 74.0196 48.8248 73.9338 48.5656H73.8029V48.3069H73.6742V47.9181H73.5455V47.6594H73.4168C73.3739 47.4866 73.3309 47.314 73.288 47.1416H73.1593V46.7528H73.0317V46.4936H72.9024C72.8166 46.2347 72.7308 45.9757 72.645 45.7165H72.5162V45.3282H72.3875C72.3127 45.1162 72.2855 44.8902 72.3077 44.6664C72.33 44.4425 72.4012 44.2264 72.5162 44.0333C72.6551 43.5266 72.8811 43.4898 73.2891 43.2562V43.1261H73.5466V42.9965H73.9327V42.8674H74.1907V42.7378L74.963 42.4786V42.3469H75.3497V42.2194H75.6072V42.0898L76.1226 41.9602V41.8312H76.5088V41.7016L77.0242 41.572V41.4402H77.4104V41.3128C77.8543 41.2927 78.2964 41.3817 78.6982 41.572C78.7414 41.6584 78.7843 41.7448 78.8269 41.8312L79.2136 42.0904V42.4786H79.3423V42.7378H79.4678V42.997H79.5965V43.2536H79.7253V43.5149H79.854V43.9037H79.9827L80.112 44.4216H80.2407V44.6808H80.3721V44.94H80.5008V45.3282H80.6295C80.7891 45.652 80.8811 45.9346 81.0157 46.2349C81.2971 46.1842 81.8136 46.0424 82.0466 45.9757H83.2056V45.8461L87.1981 45.9757C87.2407 45.8463 87.2836 45.7169 87.3269 45.5874H87.4556V45.1986H87.5843V44.8098H87.7125V44.5506H87.8412C87.8845 44.2918 87.9274 44.0328 87.97 43.7736H88.0992V43.5149H88.2279C88.2705 43.2557 88.3134 42.9967 88.3567 42.7378H88.4854V42.4786H88.6168V42.0898H88.7455C88.9811 41.6168 88.9535 41.3272 89.5184 41.1832C89.6624 41.07 89.8285 40.9884 90.006 40.9437C90.1835 40.8991 90.3684 40.8923 90.5487 40.924V41.0536H90.9348L94.0258 42.3485C94.7024 42.629 95.3849 42.6242 95.5716 43.3848C95.7498 43.792 95.7949 44.2453 95.7003 44.6797H95.5689C95.526 44.9385 95.4831 45.1976 95.4402 45.4568H95.3114V45.716H95.1827L95.0529 46.4936H94.9242V46.7528H94.7955C94.7529 47.012 94.71 47.271 94.6668 47.5298H94.538L94.1524 48.6936C94.2502 48.7672 94.3369 48.8545 94.4098 48.9528H94.6673C94.7106 49.0392 94.7535 49.1256 94.796 49.212H95.0529L95.3114 49.6002H95.5689L96.0843 50.2477H96.3418L97.246 51.284L97.7609 51.6728V51.932L98.0184 52.0616L98.6625 52.9682L100.208 52.3208V52.1922H100.466V52.0632H100.851V51.9336H101.109V51.804L101.624 51.6744V51.5448H102.01V51.4136C102.284 51.2797 103.124 50.8941 103.556 51.0253V51.1549H103.942V51.2856H104.2L104.843 52.0626C104.886 52.2785 104.929 52.4943 104.972 52.7101H105.101C105.144 52.8829 105.187 53.0555 105.23 53.228H105.359V53.6168H105.488V53.8754H105.616C105.702 54.1346 105.788 54.3937 105.874 54.6525H106.002V55.0402H106.132V55.2994H106.26V55.5581H106.389V55.8173H106.518V56.4648H106.647C106.586 56.8159 106.5 57.1622 106.389 57.501L106.002 57.7602V57.8893L105.23 58.1485V58.2781H104.84V58.4077H104.583V58.5373L103.81 58.796V58.9256H103.425V59.0552H103.168V59.1848L101.751 59.7026C101.786 60.1854 101.873 60.6631 102.008 61.1277V62.5522C102.281 63.5341 102.054 65.0685 101.88 66.0493L102.784 66.308V66.4376L103.557 66.5672V66.6968H103.814V66.8269H104.201V66.9565H104.458V67.0856L105.231 67.2152V67.3448H105.489V67.4744H105.875V67.604C106.344 67.8408 106.634 67.8125 106.779 68.381C107.02 68.636 106.901 69.757 106.779 70.0648H106.65V70.4536H106.522V70.7128H106.393C106.35 70.972 106.307 71.231 106.264 71.4898H106.135V71.749H106.006C105.964 72.0082 105.921 72.2673 105.877 72.5261H105.744V72.7853H105.616V73.1736H105.487V73.4328H105.358C105.134 73.9186 105.313 74.1768 104.714 74.3394C104.513 74.4877 104.281 74.588 104.036 74.6328C103.79 74.6776 103.538 74.6658 103.298 74.5981V74.4696H102.911V74.34H102.653V74.2104L101.881 74.0808V73.9512H101.622V73.8216L100.849 73.6925V73.5629H100.592V73.4333H100.206C99.8856 73.2482 99.5376 73.1168 99.1753 73.0445C98.9604 73.4335 98.7457 73.8221 98.5311 74.2104L98.145 74.4696V74.7282L97.5008 75.2466L96.213 76.6712C95.8083 77.0744 95.2311 77.1944 95.0535 77.837C95.293 78.144 95.4683 78.4963 95.5689 78.8728H95.6976V79.2616H95.8263V79.5202H95.9572L96.0864 80.0381H96.2152L96.6013 81.204H96.7301V81.4626H96.8588C97.0418 81.9746 96.7918 82.796 96.7301 83.1464L96.3439 83.4056V83.5352L95.1848 83.9234V84.0536H94.9269V84.1832L94.1545 84.4424V84.572H93.7657V84.701H93.5104V84.8306L92.7375 85.0898V85.2194H92.3513V85.349H92.0939V85.4781C91.5757 85.5572 91.0462 85.513 90.5481 85.349L90.2907 84.9602H90.1593L90.0301 84.4424H89.9013C89.8155 84.1832 89.7297 83.9241 89.6439 83.6653H89.5157V83.2765H89.387V83.0173H89.2583C89.215 82.8452 89.1721 82.6726 89.1295 82.4994H89.0003V82.1106H88.8715V81.852C88.6082 81.5109 88.4315 81.1108 88.3567 80.6861C87.8326 80.7075 87.3133 80.7945 86.8109 80.9453H85.0077L84.2354 81.0749V80.9453H82.4322V80.8157H82.046L80.2428 85.4781L79.8561 85.6077V85.7373H79.5987V85.8669H78.4396V85.7373L77.6668 85.6077V85.4781H77.4093V85.349H77.021V85.2194H76.763V85.0898L75.9902 84.9602V84.8306H75.7327V84.701H75.3465V84.572H74.9599V84.4424H74.7024V84.3128H74.3162C74.2733 84.2264 74.2304 84.14 74.1875 84.0536H73.9295C73.887 83.9242 73.8441 83.7947 73.8008 83.6653H73.6721C73.5615 83.4685 73.5164 83.2415 73.5434 83.0173H73.4146C73.5005 82.586 73.5863 82.1544 73.6721 81.7224H73.8008V81.4632H73.9295L74.0588 80.6861H74.1875V80.4269H74.3162C74.5751 79.6504 74.8334 78.8733 75.0912 78.0957ZM85.6519 73.6925L88.3567 73.0445V72.9154L89.1295 72.6562V72.5266H89.387V72.397L89.9019 72.2674L90.0306 72.0088H90.2886C90.3311 71.9224 90.374 71.836 90.4173 71.7496H90.6747C90.8035 71.5768 90.9324 71.4042 91.0614 71.2317H91.3189C91.5763 70.9291 91.834 70.6269 92.0918 70.325L92.3492 70.1954V69.9362L92.8641 69.548V69.2888L93.1221 69.1592V68.9L93.3795 68.7704V68.5117H93.5104V68.2525H93.6391V67.9933H93.7678V67.7336H93.8966C93.9398 67.5608 93.9827 67.388 94.0253 67.2152H94.1545V66.8269H94.2833V66.4381H94.412V66.0498H94.5407V65.5314H94.6694V64.7544H94.7981C95.0109 63.9949 94.7157 61.3906 94.5407 60.869H94.412V60.3522H94.2833V59.9634H94.1545V59.7042H94.0253V59.316H93.8966C93.854 59.1432 93.8111 58.9704 93.7678 58.7976H93.6391C93.5958 58.6251 93.5529 58.4525 93.5104 58.2797L93.2529 58.1501V57.8909L92.995 57.7618V57.5026L92.7375 57.373V57.1138L91.4497 55.9485L90.9343 55.301H90.6769L90.4194 54.9122L89.904 54.7826C89.8614 54.6962 89.8185 54.61 89.7753 54.524H89.5157V54.3944H89.2583V54.2648H89.0003V54.1336H88.7428V54.0056H88.4854V53.876H88.0992V53.7464C86.8557 53.3295 85.5444 53.1537 84.2354 53.2285H83.0763L80.7577 53.876V54.0056H80.5003V54.1336H80.2428V54.2632H79.9848V54.3928H79.7274V54.5224H79.4678C79.4247 54.6082 79.3822 54.6946 79.3391 54.781H79.0817L78.9524 55.0402H78.695L78.4375 55.4285H78.1801L77.6646 56.0765L76.5056 57.1122V57.3714L76.2481 57.501V57.7602L75.9902 57.8893V58.1485L75.7327 58.2781C75.6902 58.4509 75.6473 58.6235 75.604 58.796H75.4785C75.4356 58.9688 75.3927 59.1416 75.3497 59.3144H75.221V59.7026H75.0923V59.9618H74.963V60.3506H74.8343V60.7389H74.7056V61.3869H74.5742V62.0349H74.4455C74.2327 62.788 74.5253 65.5458 74.7029 66.0498H74.8317V66.4381H74.9604L75.0896 67.2152H75.2184V67.4744H75.3471V67.8632H75.4785V68.1218H75.6072V68.381L75.8646 68.5106C75.9079 68.6834 75.9508 68.8561 75.9934 69.0285L76.2513 69.1581V69.4173L76.6375 69.676C78.0976 71.7442 79.9971 72.733 82.6907 73.5618L85.6519 73.6925ZM54.4817 49.7314C54.0701 49.6959 53.6728 49.5629 53.3226 49.3432L52.6785 49.2136V49.084H52.4237V48.9544H52.1662V48.8248L51.6487 48.6936L50.7471 48.0461V48.1757L49.5902 49.2136L49.4614 49.4728H49.2019L49.0731 49.732H48.9466L48.5604 50.2498L47.1439 50.3794C46.9962 50.2514 46.8191 50.1623 46.6285 50.1202L46.2418 49.6002L45.9843 49.4706V49.2136L44.4386 47.7869V47.5298H44.3083C44.2425 47.388 44.1557 47.2569 44.0508 47.141C43.9762 46.5667 44.0655 45.9829 44.3083 45.4573L44.6944 45.1981L44.9519 44.8093H45.2125L45.8567 44.0322C46.153 43.8536 46.3797 43.5789 46.4992 43.2536C46.171 42.9592 46.2992 42.7736 46.113 42.3469H45.9843V42.0898H45.8551V41.7016H45.7263V41.4402H45.5976L45.2125 39.6269C44.0048 39.6591 42.7969 39.5723 41.6061 39.3677L40.962 38.5906C40.9057 37.0319 40.9919 35.4712 41.2194 33.9282L42.1205 33.2802L45.4716 33.4098C45.7059 32.4454 46.0975 31.5263 46.6306 30.6898V30.4333L46.888 30.3037V30.045H47.0168L47.1455 29.6568H47.0146L45.5981 27.973L45.0833 27.5842C44.8976 27.1787 44.8094 26.7352 44.8258 26.2893H44.9545L45.0833 25.6418L47.9168 23.0514C48.4608 22.8734 49.0472 22.8734 49.5912 23.0514L49.8487 23.4402L50.7503 24.2173V24.4765L51.6487 25.253V25.3826H52.0348C52.4641 24.9026 54.6763 24.2504 55.512 24.0877C55.5549 23.0516 55.5978 22.0155 55.6407 20.9794H55.7694C55.8123 20.7636 55.8552 20.5478 55.8981 20.332C56.1461 20.1453 56.4041 19.9724 56.671 19.8141C57.1375 19.6461 59.4402 19.8509 59.762 19.9437C60.1875 20.0658 60.6529 19.8312 60.921 20.0733C61.4364 20.205 61.4854 20.5666 61.8226 20.8504V21.3682H61.9513C61.9744 21.4382 61.9744 21.5138 61.9512 21.5838C61.928 21.6537 61.8829 21.7143 61.8226 21.7565V24.3469C62.7513 24.692 64.7726 25.3741 65.3003 26.0306C65.7322 25.9192 66.3912 25.1773 66.7168 24.8648C66.7597 24.7784 66.8026 24.692 66.8455 24.6056H67.1035C67.146 24.5192 67.1889 24.4328 67.2322 24.3464C67.4583 24.1887 67.6734 24.0157 67.8758 23.8285C68.4205 23.8141 68.7194 23.6488 69.1641 23.8285V23.9576H69.4216V24.0872L69.8077 24.2168V24.476C70.3853 24.8866 70.8685 25.4166 71.2247 26.0301L71.9976 26.6776C72.0834 27.0662 72.1692 27.4548 72.2551 27.8434H72.1274C72.0841 28.1026 72.0412 28.3617 71.9987 28.6205L71.4833 29.0088V29.1384H71.2258L69.6806 30.8221C70.1311 31.2248 70.921 33.5602 70.9684 34.4488H71.4838V34.5784H74.0599V34.708L74.7035 34.8376C74.9585 35.1561 75.1748 35.504 75.3476 35.8738C75.4089 36.3096 75.3648 36.7537 75.2189 37.1688V39.6269H75.0902L74.9609 40.2744L74.5742 40.5336V40.6632H74.3168V40.7949H73.9301V40.9245L70.7104 40.7949C70.6678 41.0107 70.6249 41.2265 70.5817 41.4424H70.4529C70.4097 41.7012 70.3668 41.9602 70.3242 42.2194H70.1955C70.1093 42.4786 70.0233 42.7377 69.9375 42.9965H69.8088V43.2536H69.6806C69.6373 43.4264 69.5944 43.599 69.5519 43.7714H69.4232V44.0306H69.2944C69.2031 44.1874 69.1584 44.3671 69.1657 44.5485C69.4631 44.8141 69.7229 45.1191 69.938 45.4552C70.6758 46.2018 71.3593 46.4994 71.3551 48.0456C71.2304 48.1959 71.1423 48.3732 71.0976 48.5634L68.2641 51.1538C67.7593 51.3008 67.2232 51.3008 66.7184 51.1538L66.2045 50.5069C65.5648 49.9837 65.0012 49.3733 64.5301 48.6936C64.1602 48.8074 63.812 48.9825 63.4997 49.2114H63.2444V49.341H62.8577C62.185 49.7173 61.4371 49.9385 60.6684 49.9885C60.6887 51.2942 60.5591 52.5979 60.2822 53.8738L59.3806 54.3922H57.5774V54.2626H55.5168V54.1336L54.8726 54.004C54.7556 53.7906 54.4311 53.4322 54.3577 53.2269V52.4514C54.3481 51.4786 54.4407 50.5384 54.4843 49.7314H54.4817ZM58.4769 44.1602V44.0328H59.5072V43.9032H60.0226V43.7736H60.4088V43.6445H60.7976V43.5149L61.313 43.3853V43.2536H61.5705C61.6134 43.1672 61.6563 43.0808 61.6992 42.9944H61.9567L62.0859 42.7352H62.3402L62.7263 42.2173H62.9843C63.0269 42.1309 63.0698 42.0445 63.113 41.9581H63.2444V41.7016L63.7593 41.3128V41.0541L64.0173 40.9245V40.6653L64.2726 40.5336V40.277H64.4013V40.0178H64.5301V39.6269H64.6588V39.3704H64.787V38.852H64.9157V38.3341H65.045V35.8733H64.9157V35.2258H64.787V34.837H64.6583V34.4488H64.5295V34.1869H64.4008L64.1434 33.4098L63.8854 33.2802V33.0237L63.4992 32.7645V32.5058L62.8551 31.988C62.8125 31.9016 62.7696 31.8152 62.7263 31.7288H62.4689L62.2114 31.3405H61.9535C61.9109 31.2541 61.868 31.1677 61.8247 31.0813L61.3099 30.9517C61.2669 30.8653 61.224 30.7789 61.1811 30.6925H60.7976V30.5629H60.5402V30.4333C60.1072 30.2477 57.9093 29.8333 57.1891 30.0445V30.1741L55.6434 30.4333V30.5629L54.8705 30.8221V30.9517L54.3556 31.0813C54.3127 31.1677 54.2698 31.2541 54.2269 31.3405H53.9694L53.5827 31.8584H53.3253V31.988L52.9386 32.2472V32.5064L52.4237 32.8952V33.1544L52.1662 33.284L52.0375 33.8018L51.7801 33.9314V34.3202H51.6487V34.5794H51.5221V34.9677C51.0482 36.1661 51.0027 37.492 51.3934 38.7202L51.5221 39.6269C52.1054 40.9866 53.0772 42.1427 54.3149 42.9494C55.5526 43.7562 57.0007 44.1775 58.4769 44.1602Z" fill="#CBCBC9"/>
<path fill-rule="evenodd" clip-rule="evenodd" d="M104.787 60.2667C104.787 60.2667 105.319 64.3201 104.787 66.1334H121.808C121.808 66.1334 126.489 63.2534 121.808 59.7334H106.383C106.205 59.9772 105.956 60.1595 105.67 60.2551C105.384 60.3506 105.075 60.3547 104.787 60.2667Z" fill="#CBCBC9"/>
<path fill-rule="evenodd" clip-rule="evenodd" d="M96.8085 26.6666L104.787 18.6666C104.787 18.6666 111.835 18.1333 109.042 24.5333L96.8085 36.2666L95.7446 34.6666L96.2765 34.1333L98.9361 33.0666V27.7333L96.8085 26.6666Z" fill="#CBCBC9"/>
<path fill-rule="evenodd" clip-rule="evenodd" d="M61.7021 21.8667C61.7021 21.8667 64.4681 22.8267 64.8936 23.4667L68.0851 20.8V2.66669C68.0851 2.66669 64.149 -2.66665 61.7021 3.20002V21.8667Z" fill="#CBCBC9"/>
<path fill-rule="evenodd" clip-rule="evenodd" d="M88.2416 22.1431C88.5022 22.1655 88.7538 22.2496 88.9757 22.3885L89.3837 22.4701V22.5517H89.547V22.6333H89.7097V22.7149L90.0363 22.7965L90.6071 23.2055V23.1245L91.3411 22.4706C91.3682 22.4173 91.3943 22.3639 91.423 22.3069H91.5858L91.6677 22.1431H91.7491L91.9938 21.8162L92.8911 21.7346C92.9846 21.8152 93.0967 21.8713 93.2172 21.8978L93.4618 22.2247L93.6251 22.3063V22.4701L94.6039 23.3693V23.533H94.6852C94.7273 23.6224 94.7823 23.7051 94.8485 23.7783C94.8955 24.141 94.8389 24.5096 94.6852 24.8413L94.4406 25.005L94.2778 25.2503H94.1145L93.7065 25.741C93.5188 25.8532 93.3749 26.0263 93.2985 26.2317C93.4316 26.396 93.5165 26.5941 93.5438 26.8039H93.6251V26.9671H93.7065V27.2125H93.7884V27.3762H93.8698C93.9514 27.7577 94.0329 28.1392 94.1145 28.5207C94.8792 28.5004 95.644 28.5553 96.398 28.6845L96.8087 29.1735C96.8444 30.1574 96.79 31.1426 96.6459 32.1165L96.0746 32.525L93.9539 32.4434C93.8054 33.0524 93.5573 33.6325 93.2198 34.1602V34.3239L93.0565 34.4055V34.5693H92.9751L92.8938 34.8146H92.9751L93.8725 35.8775L94.1985 36.1229C94.3162 36.3788 94.3721 36.6589 94.3618 36.9405H94.2805C94.2528 37.0766 94.2255 37.2128 94.1985 37.349L92.4017 38.9869C92.0571 39.0992 91.6858 39.0992 91.3411 38.9869L91.1783 38.7415L90.6071 38.2509V38.0855L90.0363 37.5949V37.5133H89.7916C89.5198 37.8173 88.1188 38.2279 87.589 38.3309L87.5076 40.293H87.4262C87.3993 40.4292 87.372 40.5654 87.3443 40.7015C87.1874 40.8196 87.024 40.9287 86.8549 41.0285C86.2017 41.0855 85.5438 41.0581 84.8975 40.9469C84.6283 40.8695 84.3331 41.0178 84.1634 40.8653C83.9297 40.7608 83.7313 40.5903 83.5927 40.3746V40.0477H83.5108C83.4957 40.0034 83.4956 39.9555 83.5104 39.9111C83.5252 39.8668 83.5541 39.8286 83.5927 39.8023V38.1671C83.0044 37.9495 81.7246 37.5186 81.39 37.1042C81.0494 37.2935 80.7456 37.5428 80.4932 37.8402L80.4113 38.0039H80.2486L80.1666 38.1671C80.0235 38.2666 79.8874 38.3759 79.7592 38.4941C79.4907 38.5555 79.2118 38.5555 78.9432 38.4941V38.4125H78.7799V38.3309L78.5353 38.2493V38.0855C78.1699 37.8266 77.8641 37.4922 77.6384 37.1047L77.1491 36.6957C77.0945 36.4503 77.04 36.205 76.9858 35.9597H77.0672C77.0943 35.7965 77.1204 35.6327 77.1491 35.469L77.4751 35.2237V35.1421H77.6384L78.6172 34.0802C78.1862 33.3839 77.9081 32.6036 77.8012 31.7911H77.4751V31.7085H75.8438V31.6269L75.4358 31.5453C75.2746 31.3443 75.1378 31.1248 75.0283 30.8914C74.9893 30.6163 75.0173 30.3358 75.1097 30.0738V28.5202H75.1911C75.2188 28.384 75.2461 28.2478 75.273 28.1117L75.5177 27.9479V27.8663H75.6805V27.7869H75.9251V27.7026L77.9645 27.7842L78.0459 27.3757H78.1278L78.2092 26.885H78.2906C78.3452 26.7214 78.3996 26.5579 78.4539 26.3943H78.5353V26.2311H78.6172L78.6986 25.9042H78.7799V25.7405H78.8618C78.9194 25.6414 78.9476 25.528 78.9432 25.4135C78.7549 25.246 78.5903 25.0534 78.4539 24.8413C77.9868 24.3687 77.5539 24.1821 77.5565 23.2061C77.6354 23.1112 77.6913 22.9993 77.7198 22.8791L79.5145 21.2439C79.8342 21.1512 80.1735 21.1512 80.4932 21.2439L80.8193 21.6535C81.2242 21.9836 81.581 22.3688 81.8794 22.7981C82.1136 22.7264 82.3342 22.6159 82.5321 22.4711H82.6954V22.3885H82.94C83.3663 22.1507 83.84 22.011 84.3267 21.9794C84.3137 21.1549 84.3958 20.3316 84.5714 19.5261L85.1422 19.2002H86.2842V19.2818H87.589V19.3634L87.997 19.445C88.114 19.6029 88.223 19.7667 88.3236 19.9357V20.4269C88.3283 21.0407 88.2693 21.6343 88.2416 22.1431ZM85.7134 25.6583V25.7399H85.0608V25.8215H84.7342V25.9042H84.4895V25.9858H84.2448V26.0674L83.9188 26.149V26.2306H83.7555L83.6741 26.3943H83.5108L83.4294 26.5581H83.2661L83.0214 26.885H82.8587L82.7767 27.0482H82.6954V27.2119L82.3693 27.4573V27.621L82.206 27.7026V27.8663L82.0427 27.9479V28.1117H81.9613V28.2754H81.8794V28.5207H81.798V28.6845H81.7166V29.0114H81.6347V29.3383H81.5533V30.8909H81.6347V31.2999H81.7166V31.5453H81.798V31.7906H81.8794V31.9543H81.9613C82.0156 32.1179 82.07 32.2814 82.1246 32.445L82.2874 32.5266V32.6903L82.5321 32.8541V33.0173L82.94 33.3442L83.0214 33.5079H83.1847C83.239 33.5897 83.2934 33.6715 83.348 33.7533H83.5108L83.5927 33.917L83.9188 33.9986L84.0001 34.1623H84.2448V34.2439H84.4081V34.3255C85.0932 34.5409 85.8128 34.6242 86.5289 34.5709V34.4882L87.5076 34.325V34.2429L87.997 34.0791V33.9975L88.3236 33.9159L88.4049 33.7522H88.5682L88.8129 33.4253H88.9757V33.3437L89.2204 33.1799V33.0167L89.547 32.7714V32.6077L89.7097 32.5261C89.7374 32.4169 89.7647 32.3079 89.7916 32.1991L89.9544 32.1175V31.8722H90.0363V31.7085H90.1177V31.4631C90.4184 30.7063 90.4472 29.8682 90.1991 29.0925L90.1177 28.5202C89.7469 27.6609 89.1309 26.9307 88.3472 26.4216C87.5635 25.9125 86.6472 25.6471 85.7134 25.6589V25.6583Z" fill="#CBCBC9"/>
</svg>
