<svg width="82" height="66" viewBox="0 0 82 66" fill="none" xmlns="http://www.w3.org/2000/svg">
<path d="M20.7202 22.5074C26.7974 22.5074 31.7417 17.5632 31.7417 11.4859C31.7417 5.40851 26.7974 0.464355 20.7202 0.464355C14.6431 0.464355 9.69873 5.40851 9.69873 11.4859C9.69873 17.5632 14.6431 22.5074 20.7202 22.5074ZM20.7202 3.10952C25.3389 3.10952 29.0966 6.86723 29.0966 11.4859C29.0966 16.1045 25.3389 19.8622 20.7202 19.8622C16.1016 19.8622 12.3439 16.1045 12.3439 11.4859C12.3439 6.86723 16.1016 3.10952 20.7202 3.10952Z" fill="#D6D4D4"/>
<path d="M49.8174 22.5074C55.8946 22.5074 60.8389 17.5632 60.8389 11.4859C60.8389 5.40851 55.8946 0.464355 49.8174 0.464355C43.7402 0.464355 38.7959 5.40851 38.7959 11.4859C38.7959 17.5632 43.7402 22.5074 49.8174 22.5074ZM49.8174 3.10952C54.436 3.10952 58.1938 6.86723 58.1938 11.4859C58.1938 16.1045 54.436 19.8622 49.8174 19.8622C45.1988 19.8622 41.4411 16.1045 41.4411 11.4859C41.4411 6.86723 45.1988 3.10952 49.8174 3.10952Z" fill="#D6D4D4"/>
<path d="M64.1285 37.2997C64.3892 37.6369 64.7805 37.8137 65.176 37.8136C65.4583 37.8136 65.7429 37.7234 65.9838 37.5376C66.5619 37.0909 66.6682 36.2603 66.2217 35.6823C62.263 30.5595 56.2837 27.6216 49.8171 27.6216C45.6651 27.6216 41.6588 28.8454 38.2313 31.161C37.6259 31.5699 37.4669 32.392 37.8756 32.9972C38.2848 33.6028 39.1069 33.7619 39.7119 33.3529C42.7006 31.334 46.1948 30.2667 49.8171 30.2667C55.4582 30.2667 60.6746 32.8301 64.1285 37.2997Z" fill="#D6D4D4"/>
<path d="M20.7204 27.6216C9.2951 27.6216 0 36.9167 0 48.342C0 49.0726 0.592163 49.6646 1.32258 49.6646C2.053 49.6646 2.64516 49.0726 2.64516 48.342C2.64516 38.3752 10.7536 30.2667 20.7204 30.2667C30.6872 30.2667 38.7957 38.3752 38.7957 48.342C38.7957 49.0726 39.3879 49.6646 40.1183 49.6646C40.8487 49.6646 41.4409 49.0726 41.4409 48.342C41.4409 36.9167 32.1458 27.6216 20.7204 27.6216Z" fill="#D6D4D4"/>
<path d="M69.2151 39.9653C62.1654 39.9653 56.4302 45.7006 56.4302 52.7503C56.4302 59.8 62.1654 65.5352 69.2151 65.5352C76.2648 65.5352 82.0001 59.8 82.0001 52.7503C82.0001 45.7006 76.2648 39.9653 69.2151 39.9653ZM69.2151 62.8901C63.624 62.8901 59.0753 58.3414 59.0753 52.7503C59.0753 47.1591 63.624 42.6105 69.2151 42.6105C74.8063 42.6105 79.3549 47.1591 79.3549 52.7503C79.3549 58.3414 74.8063 62.8901 69.2151 62.8901Z" fill="#D6D4D4"/>
<path d="M73.6237 51.4276H70.5377V48.3416C70.5377 47.611 69.9455 47.019 69.2151 47.019C68.4847 47.019 67.8925 47.611 67.8925 48.3416V51.4276H64.8065C64.0761 51.4276 63.4839 52.0196 63.4839 52.7502C63.4839 53.4808 64.0761 54.0728 64.8065 54.0728H67.8925V57.1588C67.8925 57.8894 68.4847 58.4814 69.2151 58.4814C69.9455 58.4814 70.5377 57.8894 70.5377 57.1588V54.0728H73.6237C74.3541 54.0728 74.9463 53.4808 74.9463 52.7502C74.9463 52.0196 74.3541 51.4276 73.6237 51.4276Z" fill="#D6D4D4"/>
</svg>
