<svg width="121" height="121" viewBox="0 0 121 121" fill="none" xmlns="http://www.w3.org/2000/svg">
<g clip-path="url(#clip0)">
<path d="M117.975 52.3929C117.971 52.3902 117.968 52.3865 117.965 52.3837L68.6069 3.02704C66.5031 0.922236 63.7059 -0.236328 60.7305 -0.236328C57.7552 -0.236328 54.958 0.922236 52.8532 3.02704L3.52056 52.3588C3.50395 52.3754 3.48641 52.3929 3.47071 52.4096C-0.84967 56.7549 -0.842285 63.805 3.49194 68.1393C5.47212 70.1204 8.0865 71.2669 10.8828 71.3878C10.9972 71.3989 11.1117 71.4045 11.2271 71.4045H13.1934V107.727C13.1934 114.916 19.0425 120.764 26.2312 120.764H45.5418C47.4998 120.764 49.0867 119.176 49.0867 117.219V88.7414C49.0867 85.4614 51.7556 82.7935 55.0356 82.7935H66.4255C69.7055 82.7935 72.3734 85.4614 72.3734 88.7414V117.219C72.3734 119.176 73.9603 120.764 75.9183 120.764H95.229C102.419 120.764 108.267 114.916 108.267 107.727V71.4045H110.091C113.065 71.4045 115.862 70.2459 117.968 68.1402C122.307 63.7995 122.309 56.7364 117.975 52.3929ZM112.955 63.1274C112.189 63.8927 111.172 64.3146 110.091 64.3146H104.722C102.764 64.3146 101.177 65.9015 101.177 67.8595V107.727C101.177 111.006 98.509 113.674 95.229 113.674H79.4633V88.7414C79.4633 81.5527 73.6151 75.7036 66.4255 75.7036H55.0356C47.846 75.7036 41.9969 81.5527 41.9969 88.7414V113.674H26.2312C22.9521 113.674 20.2833 111.006 20.2833 107.727V67.8595C20.2833 65.9015 18.6964 64.3146 16.7383 64.3146H11.4616C11.4062 64.3109 11.3517 64.3082 11.2954 64.3072C10.2393 64.2888 9.24876 63.8696 8.50654 63.1265C6.92794 61.5479 6.92794 58.9788 8.50654 57.3992C8.50746 57.3992 8.50746 57.3983 8.50839 57.3974L8.51116 57.3946L57.8678 8.03979C58.6322 7.27449 59.6486 6.85353 60.7305 6.85353C61.8116 6.85353 62.828 7.27449 63.5933 8.03979L112.939 57.3845C112.946 57.3918 112.955 57.3992 112.962 57.4066C114.532 58.988 114.529 61.5516 112.955 63.1274Z" fill="#C2BDBD"/>
</g>
<defs>
<clipPath id="clip0">
<rect width="121" height="121" fill="white"/>
</clipPath>
</defs>
</svg>
